<svg width="585" height="280" viewBox="0 0 585 280" fill="none" xmlns="http://www.w3.org/2000/svg">
<path d="M104.687 280H36.6865C12.6865 280 0.686523 268 0.686523 244V36C0.686523 12 12.6865 0 36.6865 0H133.487C138.287 0 140.687 2.40002 140.687 7.2V8.80001C140.687 13.6 138.287 16 133.487 16H18.6865C17.4865 16 16.6865 16.8 16.6865 18V22C16.6865 23.2 17.4865 24 18.6865 24H134.687C135.887 24 136.687 24.8 136.687 26V30C136.687 31.2 135.887 32 134.687 32H18.6865C17.4865 32 16.6865 32.8 16.6865 34V38C16.6865 39.2 17.4865 40 18.6865 40H104.687C128.687 40 140.687 52 140.687 76V244C140.687 268 128.687 280 104.687 280Z" fill="#00A7A0"/>
<path d="M252.733 280H184.733C160.733 280 148.733 268 148.733 244V60C148.733 36 160.733 24 184.733 24H270.733C271.933 24 272.733 23.2 272.733 22V18C272.733 16.8 271.933 16 270.733 16H159.933C155.133 16 152.733 13.6 152.733 8.80001V7.2C152.733 2.40002 155.133 0 159.933 0H277.933C285.133 0 288.733 3.6 288.733 10.8V21.6C288.733 28.8 285.133 32.4 277.933 32.4L166.733 32C165.533 32 164.733 32.8 164.733 34V38C164.733 39.2 165.533 40 166.733 40H252.733C276.733 40 288.733 52 288.733 76V244C288.733 268 276.733 280 252.733 280Z" fill="#DA5D76"/>
<path d="M327.58 280H314.78C302.78 280 296.78 274 296.78 262V36C296.78 12 308.78 0 332.78 0H400.78C424.78 0 436.78 12 436.78 36V204C436.78 228 424.78 240 400.78 240H370.38C355.98 240 347.98 232.8 345.98 218.4L321.18 18C320.78 16.8 319.98 16 318.78 16H314.38C313.18 16 312.38 16.8 312.78 18L343.18 262C344.78 274 339.58 280 327.58 280ZM332.78 18V22C332.78 23.2 333.58 24 334.78 24H418.78C419.98 24 420.78 23.2 420.78 22V18C420.78 16.8 419.98 16 418.78 16H334.78C333.58 16 332.78 16.8 332.78 18Z" fill="#EC7745"/>
<path d="M548.827 280H480.827C456.827 280 444.827 268 444.827 244V60C444.827 36 456.827 24 480.827 24H566.827C568.027 24 568.827 23.2 568.827 22V18C568.827 16.8 568.027 16 566.827 16H456.027C451.227 16 448.827 13.6 448.827 8.80001V7.2C448.827 2.40002 451.227 0 456.027 0H574.027C581.227 0 584.827 3.6 584.827 10.8V21.6C584.827 28.8 581.227 32.4 574.027 32.4L462.827 32C461.627 32 460.827 32.8 460.827 34V38C460.827 39.2 461.627 40 462.827 40H548.827C572.827 40 584.827 52 584.827 76V244C584.827 268 572.827 280 548.827 280Z" fill="#00A2CA"/>
</svg>
